<svg width="110" height="46" viewBox="0 0 110 46" fill="none" xmlns="http://www.w3.org/2000/svg">
<rect y="3" width="110" height="40" fill="#0A9CEF"/>
<g filter="url(#filter0_d_1_2)">
<path d="M58.3684 28.4999C58.3373 29.2132 58.2336 29.8003 58.0573 30.261C57.8868 30.728 57.6064 31.0972 57.2162 31.3684C56.826 31.6396 56.2886 31.8444 55.6039 31.9826C55.4832 31.8573 55.3765 31.6874 55.2838 31.4732C55.1968 31.2652 55.1404 31.0435 55.1146 30.8082C55.4576 30.655 55.7288 30.4957 55.9283 30.3302C56.1277 30.1648 56.2721 29.9519 56.3615 29.6915C56.451 29.4312 56.5051 29.0852 56.524 28.6536L56.8372 21.4784C56.8511 21.1607 56.8044 20.9245 56.697 20.7697C56.5899 20.6088 56.3895 20.522 56.0958 20.5092L55.7272 20.4931C55.6824 20.2809 55.6648 20.064 55.6745 19.8422C55.6844 19.6144 55.7214 19.3878 55.7853 19.1624C56.0323 19.1431 56.279 19.1329 56.5253 19.1316C56.7716 19.1303 56.9667 19.1329 57.1105 19.1391L57.3533 19.1497C57.7969 19.1691 58.1383 19.3281 58.3775 19.6269C58.6169 19.9196 58.7258 20.3147 58.7041 20.8122L58.3684 28.4999ZM56.4483 16.768C56.4617 16.4623 56.5273 16.1979 56.6451 15.9748C56.7559 15.9136 56.9051 15.8661 57.0928 15.8322C57.2804 15.7984 57.4642 15.7854 57.644 15.7932C57.8118 15.8006 57.9937 15.8295 58.1897 15.8801C58.3857 15.9307 58.5302 15.9911 58.6232 16.0612C58.6727 16.1655 58.7061 16.296 58.7232 16.4529C58.7467 16.6041 58.7556 16.7426 58.7501 16.8685C58.737 17.1682 58.6715 17.4326 58.5533 17.6617C58.4606 17.7237 58.3113 17.7712 58.1057 17.8043C57.9063 17.8316 57.7227 17.8416 57.5549 17.8343C57.375 17.8264 57.19 17.8003 56.9998 17.756C56.8158 17.7059 56.6743 17.6457 56.5752 17.5753C56.4775 17.3368 56.4352 17.0677 56.4483 16.768ZM61.3916 21.2899C61.4052 20.9782 61.397 20.6836 61.3671 20.406C61.3374 20.1225 61.2702 19.8733 61.1655 19.6585C61.3086 19.5446 61.4866 19.4563 61.6996 19.3936C61.9128 19.3248 62.1303 19.2952 62.3521 19.3049C62.7177 19.3209 62.968 19.4339 63.103 19.644C63.2442 19.8484 63.3063 20.1454 63.2893 20.535L63.0895 25.1116C63.0633 25.7111 63.1191 26.1519 63.2569 26.4342C63.4008 26.7167 63.6914 26.8676 64.129 26.8867C64.4827 26.9021 64.8706 26.8199 65.2929 26.6402C65.7151 26.4604 66.0957 26.2038 66.4346 25.8703L66.7074 19.6212C66.9613 19.5842 67.268 19.5736 67.6277 19.5893C67.9933 19.6053 68.304 19.6429 68.5596 19.7021L68.2821 26.059C68.2669 26.4067 68.2885 26.7379 68.3468 27.0528C68.4054 27.3616 68.5268 27.6072 68.711 27.7894C68.6557 27.9551 68.5581 28.128 68.4181 28.3081C68.2784 28.4822 68.1315 28.6139 67.9775 28.7033C67.5852 28.6081 67.2713 28.4382 67.0358 28.1937C66.8062 27.9494 66.6387 27.6599 66.5332 27.3249C66.1268 27.6916 65.6573 27.9924 65.1245 28.2274C64.592 28.4563 64.038 28.5583 63.4626 28.5332C62.9051 28.5088 62.4552 28.36 62.1128 28.0869C61.7766 27.8079 61.5343 27.443 61.3858 26.9921C61.2436 26.5355 61.1845 26.0314 61.2086 25.4799L61.3916 21.2899ZM78.1703 27.1123C78.1567 27.424 78.1647 27.7217 78.1944 28.0052C78.2243 28.2828 78.2916 28.529 78.3964 28.7438C78.2595 28.8519 78.0846 28.9373 77.8717 29.0001C77.6585 29.0689 77.438 29.0983 77.2102 29.0883C76.8505 29.0726 76.6001 28.9626 76.4589 28.7583C76.3237 28.5542 76.2645 28.2573 76.2816 27.8677L76.4814 23.291C76.5075 22.6916 76.4487 22.2506 76.3049 21.9681C76.1611 21.6855 75.8704 21.5347 75.4328 21.5156C75.0792 21.5002 74.6912 21.5823 74.269 21.7621C73.8467 21.9418 73.4693 22.1956 73.1367 22.5234L72.8634 28.7815C72.6096 28.8184 72.2998 28.8289 71.9342 28.8129C71.5685 28.797 71.2579 28.7594 71.0022 28.7002L71.3881 19.8616L71.5101 19.7498L72.2114 19.7804C72.5591 19.7956 72.8066 19.9055 72.9538 20.1101C73.1072 20.309 73.1884 20.5828 73.1972 20.9315C73.596 20.6006 74.046 20.335 74.5472 20.1347C75.0484 19.9343 75.5658 19.8458 76.0993 19.8691C76.6627 19.8937 77.1125 20.0455 77.4487 20.3244C77.7911 20.5976 78.0334 20.9625 78.1756 21.4192C78.3181 21.8698 78.3773 22.3709 78.3532 22.9223L78.1703 27.1123ZM82.923 29.2207C82.6632 29.2574 82.3534 29.2679 81.9938 29.2522C81.6281 29.2362 81.3175 29.1986 81.0618 29.1394L81.3496 22.5487C81.3634 22.231 81.3167 21.9947 81.2093 21.8399C81.1023 21.6791 80.9019 21.5922 80.6081 21.5794L80.4103 21.5708C80.3655 21.3586 80.348 21.1416 80.3577 20.9199C80.3676 20.6921 80.4045 20.4655 80.4684 20.24C80.6975 20.22 80.9112 20.2083 81.1096 20.205C81.3139 20.2019 81.482 20.2032 81.6139 20.209L81.8566 20.2196C82.3062 20.2392 82.6536 20.3985 82.8988 20.6975C83.1502 20.9907 83.2651 21.3861 83.2434 21.8837L82.923 29.2207ZM81.0056 17.8402C81.019 17.5345 81.0846 17.2701 81.2024 17.047C81.3132 16.9858 81.4624 16.9383 81.65 16.9044C81.8377 16.8706 82.0214 16.8576 82.2013 16.8654C82.3691 16.8727 82.551 16.9017 82.747 16.9523C82.943 17.0029 83.0875 17.0633 83.1805 17.1334C83.23 17.2376 83.2634 17.3682 83.2805 17.5251C83.304 17.6763 83.3129 17.8148 83.3074 17.9407C83.2943 18.2404 83.2287 18.5048 83.1106 18.7339C83.0178 18.7959 82.8686 18.8434 82.663 18.8765C82.4636 18.9038 82.28 18.9138 82.1122 18.9065C81.9323 18.8986 81.7473 18.8725 81.557 18.8282C81.3731 18.7781 81.2315 18.7179 81.1325 18.6475C81.0348 18.409 80.9925 18.1399 81.0056 17.8402ZM93.0522 25.2127C93.0119 26.1358 92.8296 26.9416 92.5053 27.6301C92.1809 28.3186 91.7224 28.8481 91.1297 29.2186C90.5369 29.5891 89.812 29.7557 88.9548 29.7182C88.1036 29.6811 87.3989 29.4521 86.8407 29.0314C86.2828 28.6046 85.8723 28.0342 85.6092 27.32C85.3524 26.6001 85.2438 25.7846 85.2836 24.8735C85.3234 23.9624 85.5055 23.1625 85.8298 22.474C86.1544 21.7795 86.6131 21.247 87.2058 20.8765C87.7985 20.506 88.5175 20.3392 89.3627 20.3761C90.2259 20.4138 90.9364 20.646 91.4943 21.0728C92.0525 21.4935 92.46 22.0638 92.7168 22.7837C92.9799 23.4979 93.0917 24.3075 93.0522 25.2127ZM87.1988 24.9571C87.1742 25.5206 87.208 26.0536 87.3001 26.5561C87.3926 27.0526 87.5759 27.4629 87.85 27.7872C88.1243 28.1055 88.5193 28.2759 89.0348 28.2984C89.5443 28.3206 89.9466 28.185 90.2417 27.8916C90.543 27.5925 90.7614 27.1996 90.8967 26.7131C91.0323 26.2205 91.1124 25.6925 91.137 25.1291C91.1611 24.5776 91.1271 24.0506 91.0349 23.5481C90.9427 23.0456 90.7596 22.6322 90.4855 22.308C90.2174 21.9839 89.8285 21.8108 89.319 21.7886C88.8035 21.7661 88.3951 21.9044 88.0938 22.2035C87.7924 22.5027 87.5739 22.8985 87.4383 23.3911C87.3027 23.8836 87.2229 24.4056 87.1988 24.9571ZM94.8904 21.7075C94.9397 21.5415 95.0346 21.3625 95.1751 21.1704C95.3156 20.9784 95.4599 20.8375 95.608 20.7479C96.0354 20.8627 96.3779 21.0638 96.6356 21.3513C96.8993 21.6391 97.085 21.9955 97.1925 22.4206C97.4222 21.9742 97.7324 21.6094 98.1231 21.3262C98.5141 21.0369 99.0093 20.9054 99.6088 20.9316C99.7706 20.9387 99.9261 20.9545 100.075 20.979C100.224 21.0035 100.385 21.0346 100.558 21.0721C100.547 21.3239 100.498 21.616 100.411 21.9486C100.331 22.2754 100.204 22.5611 100.031 22.8058C99.9128 22.7706 99.7907 22.7473 99.6651 22.7358C99.5458 22.7185 99.4263 22.7043 99.3066 22.6931C98.8211 22.6719 98.4165 22.7924 98.0927 23.0545C97.7752 23.3109 97.5156 23.6178 97.3138 23.9754L97.0578 29.8378C96.804 29.8748 96.4942 29.8853 96.1286 29.8693C95.7689 29.8536 95.4613 29.8161 95.2056 29.7569L95.4749 23.5888C95.4959 23.1093 95.4411 22.7135 95.3106 22.4015C95.18 22.0895 95.04 21.8582 94.8904 21.7075Z" fill="#F2F2F2"/>
</g>
<rect x="3" y="6" width="43" height="35" fill="#F2F2F2"/>
<g filter="url(#filter1_d_1_2)">
<path d="M15.0354 30.575C15.5407 30.9612 16.1229 31.3006 16.7819 31.5931C17.454 31.8748 18.1185 32.0473 18.7755 32.1105C20.2447 32.252 21.2906 31.9066 21.9132 31.0745C22.5478 30.2435 22.9571 28.8724 23.1411 26.9612L24.6921 10.8537C24.9845 10.8216 25.3045 10.8163 25.652 10.8377C26.0127 10.8483 26.3363 10.8674 26.623 10.895C26.9216 10.9238 27.237 10.9662 27.5692 11.0223C27.9144 11.0676 28.2275 11.1339 28.5084 11.2212L27.0092 26.7912C26.8838 28.0932 26.671 29.3023 26.3706 30.4187C26.0714 31.5231 25.6247 32.4686 25.0305 33.2553C24.4364 34.042 23.6326 34.6276 22.619 35.0123C21.6067 35.385 20.3241 35.4965 18.7712 35.347C17.8515 35.2585 16.8966 35.0339 15.9066 34.6734C14.9286 34.314 14.0743 33.858 13.3439 33.3054C13.654 32.2141 14.2178 31.304 15.0354 30.575Z" fill="#0A9CEF"/>
</g>
<defs>
<filter id="filter0_d_1_2" x="51.0644" y="15.7116" width="53.6415" height="26.2093" filterUnits="userSpaceOnUse" color-interpolation-filters="sRGB">
<feFlood flood-opacity="0" result="BackgroundImageFix"/>
<feColorMatrix in="SourceAlpha" type="matrix" values="0 0 0 0 0 0 0 0 0 0 0 0 0 0 0 0 0 0 127 0" result="hardAlpha"/>
<feOffset dy="4"/>
<feGaussianBlur stdDeviation="2"/>
<feComposite in2="hardAlpha" operator="out"/>
<feColorMatrix type="matrix" values="0 0 0 0 0 0 0 0 0 0 0 0 0 0 0 0 0 0 0.25 0"/>
<feBlend mode="normal" in2="BackgroundImageFix" result="effect1_dropShadow_1_2"/>
<feBlend mode="normal" in="SourceGraphic" in2="effect1_dropShadow_1_2" result="shape"/>
</filter>
<filter id="filter1_d_1_2" x="9.19901" y="9.83399" width="23.3232" height="34.2204" filterUnits="userSpaceOnUse" color-interpolation-filters="sRGB">
<feFlood flood-opacity="0" result="BackgroundImageFix"/>
<feColorMatrix in="SourceAlpha" type="matrix" values="0 0 0 0 0 0 0 0 0 0 0 0 0 0 0 0 0 0 127 0" result="hardAlpha"/>
<feOffset dy="4"/>
<feGaussianBlur stdDeviation="2"/>
<feComposite in2="hardAlpha" operator="out"/>
<feColorMatrix type="matrix" values="0 0 0 0 0 0 0 0 0 0 0 0 0 0 0 0 0 0 0.25 0"/>
<feBlend mode="normal" in2="BackgroundImageFix" result="effect1_dropShadow_1_2"/>
<feBlend mode="normal" in="SourceGraphic" in2="effect1_dropShadow_1_2" result="shape"/>
</filter>
</defs>
</svg>
